<svg width="640" height="512" viewBox="0 0 640 512" fill="none" xmlns="http://www.w3.org/2000/svg">
<path d="M386.061 228.496C387.895 238.188 389.204 247.88 389.204 260.452C389.204 370.205 315.599 448 204.8 448C98.716 448 12.8 362.085 12.8 256C12.8 149.915 98.716 64 204.8 64C256.664 64 299.883 82.859 333.411 114.292L281.285 164.322C267.14 150.701 242.257 134.723 204.8 134.723C139.316 134.723 85.88 188.944 85.88 256C85.88 323.056 139.316 377.277 204.8 377.277C280.761 377.277 309.313 322.532 313.765 294.504H204.8V228.495H386.061V228.496ZM571.467 234.933V179.2H515.466V234.933H459.733V290.934H515.466V346.667H571.467V290.934H627.2V234.933H571.467Z" fill="white"/>
</svg>
